<svg xmlns="http://www.w3.org/2000/svg" width="48" height="48" viewBox="0 0 48 48">
  <path
    d="M24 0a24 24 0 1 1 0 48 24 24 0 0 1 0-48Zm.7 8c-2.9 0-5.6.6-8 1.8a15 15 0 0 0-5.6 5.3A16.5 16.5 0 0 0 9 23.6v.8c0 3.3.7 6.1 2 8.5A15.5 15.5 0 0 0 24.8 40c2.8 0 5.3-.5 7.4-1.5 2.1-1 3.8-2.4 5-4.2 1.4-1.8 2.3-3.7 2.8-5.9l-7.5-1.8c-.3 2-1 3.6-2.3 4.8-1.2 1.2-3 1.8-5.3 1.8-1.5 0-3-.4-4.2-1a7.2 7.2 0 0 1-3-3c-.6-1.4-1-3-1-4.9v-.6c0-2 .4-3.5 1-4.9a7.2 7.2 0 0 1 3-3 10 10 0 0 1 4.2-1 8 8 0 0 1 4 .9c1 .6 1.8 1.3 2.3 2.3.6 1 1 2 1.1 3.3l7.5-1.6a13.4 13.4 0 0 0-7.6-10.2A17 17 0 0 0 24.7 8Z"
    fill="#000000" />
</svg>